<svg width="20" height="20" viewBox="0 0 20 20" fill="none" xmlns="http://www.w3.org/2000/svg">
<g clip-path="url(#clip0_2_22)">
<path d="M19.75 10.2085C19.75 9.5585 19.6917 8.9335 19.5833 8.3335H10.95V11.8835H15.8833C15.6667 13.0252 15.0167 13.9918 14.0417 14.6418V16.9502H17.0167C18.75 15.3502 19.75 13.0002 19.75 10.2085Z" fill="#4285F4"/>
<path d="M10.9497 19.1667C13.4247 19.1667 15.4997 18.35 17.0164 16.95L14.0414 14.6417C13.2247 15.1917 12.1831 15.525 10.9497 15.525C8.56641 15.525 6.54141 13.9167 5.81641 11.75H2.76641V14.1167C4.27474 17.1083 7.36641 19.1667 10.9497 19.1667Z" fill="#34A853"/>
<path d="M5.81634 11.7416C5.63301 11.1916 5.52467 10.6083 5.52467 9.99993C5.52467 9.3916 5.63301 8.80827 5.81634 8.25827V5.8916H2.76634C2.14134 7.12493 1.783 8.5166 1.783 9.99993C1.783 11.4833 2.14134 12.8749 2.76634 14.1083L5.14134 12.2583L5.81634 11.7416Z" fill="#FBBC05"/>
<path d="M10.9497 4.4835C12.2997 4.4835 13.4997 4.95016 14.4581 5.85016L17.0831 3.22516C15.4914 1.74183 13.4247 0.833496 10.9497 0.833496C7.36641 0.833496 4.27474 2.89183 2.76641 5.89183L5.81641 8.2585C6.54141 6.09183 8.56641 4.4835 10.9497 4.4835Z" fill="#EA4335"/>
</g>
<defs>
<clipPath id="clip0_2_22">
<rect width="19" height="20" fill="white" transform="translate(0.949997)"/>
</clipPath>
</defs>
</svg>
