<svg width="1734" height="1099" viewBox="0 0 1734 1099" fill="none" xmlns="http://www.w3.org/2000/svg">
<g opacity="0.7">
<g clip-path="url(#clip0_2746_23644)">
<path d="M446.984 22.8381L446.984 1074.16L874.597 1074.16L874.597 22.8381L446.984 22.8381Z" stroke="#707070" stroke-width="0.42" stroke-miterlimit="10"/>
<path d="M827.07 1074.16L827.07 22.8381" stroke="#707070" stroke-width="0.42" stroke-miterlimit="10"/>
<path d="M779.547 1074.16L779.547 22.8381" stroke="#707070" stroke-width="0.42" stroke-miterlimit="10"/>
<path d="M732.07 1074.16L732.07 22.8381" stroke="#707070" stroke-width="0.42" stroke-miterlimit="10"/>
<path d="M684.547 1074.16L684.547 22.8382" stroke="#707070" stroke-width="0.42" stroke-miterlimit="10"/>
<path d="M637.023 1074.16L637.023 22.8381" stroke="#707070" stroke-width="0.42" stroke-miterlimit="10"/>
<path d="M589.508 1074.16L589.508 22.8381" stroke="#707070" stroke-width="0.42" stroke-miterlimit="10"/>
<path d="M541.984 1074.16L541.984 22.8381" stroke="#707070" stroke-width="0.42" stroke-miterlimit="10"/>
<path d="M494.5 1074.16L494.5 22.8381" stroke="#707070" stroke-width="0.42" stroke-miterlimit="10"/>
<path d="M446.984 63.2578L874.597 63.2578" stroke="#707070" stroke-width="0.42" stroke-miterlimit="10"/>
<path d="M446.984 103.719L874.597 103.719" stroke="#707070" stroke-width="0.42" stroke-miterlimit="10"/>
<path d="M446.984 144.139L874.597 144.139" stroke="#707070" stroke-width="0.42" stroke-miterlimit="10"/>
<path d="M446.984 184.598L874.597 184.598" stroke="#707070" stroke-width="0.42" stroke-miterlimit="10"/>
<path d="M446.984 225.02L874.597 225.02" stroke="#707070" stroke-width="0.42" stroke-miterlimit="10"/>
<path d="M446.984 265.439L874.597 265.439" stroke="#707070" stroke-width="0.42" stroke-miterlimit="10"/>
<path d="M446.984 305.898L874.597 305.898" stroke="#707070" stroke-width="0.42" stroke-miterlimit="10"/>
<path d="M446.984 346.318L874.597 346.318" stroke="#707070" stroke-width="0.42" stroke-miterlimit="10"/>
<path d="M446.984 386.779L874.597 386.779" stroke="#707070" stroke-width="0.42" stroke-miterlimit="10"/>
<path d="M446.984 427.199L874.597 427.199" stroke="#707070" stroke-width="0.42" stroke-miterlimit="10"/>
<path d="M446.984 467.619L874.597 467.619" stroke="#707070" stroke-width="0.42" stroke-miterlimit="10"/>
<path d="M446.984 508.08L874.597 508.08" stroke="#707070" stroke-width="0.42" stroke-miterlimit="10"/>
<path d="M446.984 548.5L874.597 548.5" stroke="#707070" stroke-width="0.42" stroke-miterlimit="10"/>
<path d="M446.984 588.961L874.597 588.961" stroke="#707070" stroke-width="0.42" stroke-miterlimit="10"/>
<path d="M446.984 629.381L874.597 629.381" stroke="#707070" stroke-width="0.42" stroke-miterlimit="10"/>
<path d="M446.984 669.801L874.597 669.801" stroke="#707070" stroke-width="0.42" stroke-miterlimit="10"/>
<path d="M446.984 710.26L874.597 710.26" stroke="#707070" stroke-width="0.42" stroke-miterlimit="10"/>
<path d="M446.984 750.682L874.597 750.682" stroke="#707070" stroke-width="0.42" stroke-miterlimit="10"/>
<path d="M446.984 791.102L874.597 791.102" stroke="#707070" stroke-width="0.42" stroke-miterlimit="10"/>
<path d="M446.984 831.561L874.597 831.561" stroke="#707070" stroke-width="0.42" stroke-miterlimit="10"/>
<path d="M446.984 871.98L874.597 871.98" stroke="#707070" stroke-width="0.42" stroke-miterlimit="10"/>
<path d="M446.984 912.441L874.597 912.441" stroke="#707070" stroke-width="0.42" stroke-miterlimit="10"/>
<path d="M446.984 952.861L874.597 952.861" stroke="#707070" stroke-width="0.42" stroke-miterlimit="10"/>
<path d="M446.984 993.281L874.597 993.281" stroke="#707070" stroke-width="0.42" stroke-miterlimit="10"/>
<path d="M446.984 1033.74L874.597 1033.74" stroke="#707070" stroke-width="0.42" stroke-miterlimit="10"/>
</g>
<g clip-path="url(#clip1_2746_23644)">
<path d="M1255.58 1074.16L1255.58 22.8381" stroke="#707070" stroke-width="0.42" stroke-miterlimit="10"/>
<path d="M1208.05 1074.16L1208.05 22.8381" stroke="#707070" stroke-width="0.42" stroke-miterlimit="10"/>
<path d="M1160.58 1074.16L1160.58 22.8381" stroke="#707070" stroke-width="0.42" stroke-miterlimit="10"/>
<path d="M1113.05 1074.16L1113.05 22.8381" stroke="#707070" stroke-width="0.42" stroke-miterlimit="10"/>
<path d="M1065.53 1074.16L1065.53 22.8381" stroke="#707070" stroke-width="0.42" stroke-miterlimit="10"/>
<path d="M1018.02 1074.16L1018.02 22.8381" stroke="#707070" stroke-width="0.42" stroke-miterlimit="10"/>
<path d="M970.492 1074.16L970.492 22.8381" stroke="#707070" stroke-width="0.42" stroke-miterlimit="10"/>
<path d="M923.008 1074.16L923.008 22.8381" stroke="#707070" stroke-width="0.42" stroke-miterlimit="10"/>
<path d="M875.492 63.2578L1303.1 63.2578" stroke="#707070" stroke-width="0.42" stroke-miterlimit="10"/>
<path d="M875.492 103.719L1303.1 103.719" stroke="#707070" stroke-width="0.42" stroke-miterlimit="10"/>
<path d="M875.492 144.139L1303.1 144.139" stroke="#707070" stroke-width="0.42" stroke-miterlimit="10"/>
<path d="M875.492 184.598L1303.1 184.598" stroke="#707070" stroke-width="0.42" stroke-miterlimit="10"/>
<path d="M875.492 225.02L1303.1 225.02" stroke="#707070" stroke-width="0.42" stroke-miterlimit="10"/>
<path d="M875.492 265.439L1303.1 265.439" stroke="#707070" stroke-width="0.42" stroke-miterlimit="10"/>
<path d="M875.492 305.898L1303.1 305.898" stroke="#707070" stroke-width="0.42" stroke-miterlimit="10"/>
<path d="M875.492 346.318L1303.1 346.318" stroke="#707070" stroke-width="0.42" stroke-miterlimit="10"/>
<path d="M875.492 386.779L1303.1 386.779" stroke="#707070" stroke-width="0.42" stroke-miterlimit="10"/>
<path d="M875.492 427.199L1303.1 427.199" stroke="#707070" stroke-width="0.42" stroke-miterlimit="10"/>
<path d="M875.492 467.619L1303.1 467.619" stroke="#707070" stroke-width="0.42" stroke-miterlimit="10"/>
<path d="M875.492 508.08L1303.1 508.08" stroke="#707070" stroke-width="0.42" stroke-miterlimit="10"/>
<path d="M875.492 548.5L1303.1 548.5" stroke="#707070" stroke-width="0.42" stroke-miterlimit="10"/>
<path d="M875.492 588.961L1303.1 588.961" stroke="#707070" stroke-width="0.42" stroke-miterlimit="10"/>
<path d="M875.492 629.381L1303.1 629.381" stroke="#707070" stroke-width="0.42" stroke-miterlimit="10"/>
<path d="M875.492 669.801L1303.1 669.801" stroke="#707070" stroke-width="0.42" stroke-miterlimit="10"/>
<path d="M875.492 710.26L1303.1 710.26" stroke="#707070" stroke-width="0.42" stroke-miterlimit="10"/>
<path d="M875.492 750.682L1303.1 750.682" stroke="#707070" stroke-width="0.42" stroke-miterlimit="10"/>
<path d="M875.492 791.102L1303.1 791.102" stroke="#707070" stroke-width="0.42" stroke-miterlimit="10"/>
<path d="M875.492 831.561L1303.1 831.561" stroke="#707070" stroke-width="0.42" stroke-miterlimit="10"/>
<path d="M875.492 871.98L1303.1 871.98" stroke="#707070" stroke-width="0.42" stroke-miterlimit="10"/>
<path d="M875.492 912.441L1303.1 912.441" stroke="#707070" stroke-width="0.42" stroke-miterlimit="10"/>
<path d="M875.492 952.861L1303.1 952.861" stroke="#707070" stroke-width="0.42" stroke-miterlimit="10"/>
<path d="M875.492 993.281L1303.1 993.281" stroke="#707070" stroke-width="0.42" stroke-miterlimit="10"/>
<path d="M875.492 1033.74L1303.1 1033.74" stroke="#707070" stroke-width="0.42" stroke-miterlimit="10"/>
</g>
<mask id="path-68-inside-1_2746_23644" fill="white">
<path d="M0 0H1736V1099H0V0Z"/>
</mask>
<path d="M0 0H1736V1099H0V0Z" fill="url(#paint0_radial_2746_23644)"/>
<path d="M0 1.5H1736V-1.5H0V1.5Z" fill="url(#paint1_radial_2746_23644)" mask="url(#path-68-inside-1_2746_23644)"/>
</g>
<defs>
<radialGradient id="paint0_radial_2746_23644" cx="0" cy="0" r="1" gradientUnits="userSpaceOnUse" gradientTransform="translate(868 638.705) rotate(90) scale(424.333 1225.06)">
<stop/>
<stop offset="0.0001" stop-opacity="0"/>
<stop offset="0.0002" stop-opacity="0"/>
<stop offset="1"/>
</radialGradient>
<radialGradient id="paint1_radial_2746_23644" cx="0" cy="0" r="1" gradientUnits="userSpaceOnUse" gradientTransform="translate(905.975 -752.305) rotate(90) scale(1445.69 1201.47)">
<stop stop-color="#818181"/>
<stop offset="1" stop-color="#393939" stop-opacity="0"/>
</radialGradient>
<clipPath id="clip0_2746_23644">
<rect width="1053" height="429.373" fill="white" transform="translate(446.102 1075) rotate(-90)"/>
</clipPath>
<clipPath id="clip1_2746_23644">
<rect width="1053" height="429.373" fill="white" transform="translate(874.609 1075) rotate(-90)"/>
</clipPath>
</defs>
</svg>
